<mxfile host="app.diagrams.net" agent="Mozilla/5.0 (Windows NT 10.0; Win64; x64) AppleWebKit/537.36 (KHTML, like Gecko) Chrome/137.0.0.0 Safari/537.36 OPR/121.0.0.0" version="28.2.4">
  <diagram name="Page-1" id="qKjfDkCnT4YypzFY2SAg">
    <mxGraphModel dx="847" dy="510" grid="1" gridSize="10" guides="1" tooltips="1" connect="1" arrows="1" fold="1" page="1" pageScale="1" pageWidth="850" pageHeight="1100" math="0" shadow="0">
      <root>
        <mxCell id="0" />
        <mxCell id="1" parent="0" />
        <mxCell id="1R01WL3bSxaGgvp8fWAl-1" value="" style="rounded=0;whiteSpace=wrap;html=1;" vertex="1" parent="1">
          <mxGeometry x="80" y="80" width="480" height="520" as="geometry" />
        </mxCell>
        <mxCell id="q4svlUAVzWbHuXpgUVyt-1" value="" style="rounded=0;whiteSpace=wrap;html=1;" parent="1" vertex="1">
          <mxGeometry x="320" y="120" width="170" height="440" as="geometry" />
        </mxCell>
        <mxCell id="q4svlUAVzWbHuXpgUVyt-9" style="edgeStyle=orthogonalEdgeStyle;rounded=0;orthogonalLoop=1;jettySize=auto;html=1;entryX=0;entryY=0.5;entryDx=0;entryDy=0;" parent="1" source="q4svlUAVzWbHuXpgUVyt-2" target="q4svlUAVzWbHuXpgUVyt-5" edge="1">
          <mxGeometry relative="1" as="geometry" />
        </mxCell>
        <mxCell id="q4svlUAVzWbHuXpgUVyt-10" style="edgeStyle=orthogonalEdgeStyle;rounded=0;orthogonalLoop=1;jettySize=auto;html=1;entryX=0;entryY=0.5;entryDx=0;entryDy=0;" parent="1" source="q4svlUAVzWbHuXpgUVyt-2" target="q4svlUAVzWbHuXpgUVyt-6" edge="1">
          <mxGeometry relative="1" as="geometry" />
        </mxCell>
        <mxCell id="q4svlUAVzWbHuXpgUVyt-11" style="edgeStyle=orthogonalEdgeStyle;rounded=0;orthogonalLoop=1;jettySize=auto;html=1;entryX=0;entryY=0.5;entryDx=0;entryDy=0;" parent="1" source="q4svlUAVzWbHuXpgUVyt-2" target="q4svlUAVzWbHuXpgUVyt-7" edge="1">
          <mxGeometry relative="1" as="geometry" />
        </mxCell>
        <mxCell id="q4svlUAVzWbHuXpgUVyt-12" style="edgeStyle=orthogonalEdgeStyle;rounded=0;orthogonalLoop=1;jettySize=auto;html=1;entryX=0;entryY=0.5;entryDx=0;entryDy=0;" parent="1" source="q4svlUAVzWbHuXpgUVyt-2" target="q4svlUAVzWbHuXpgUVyt-8" edge="1">
          <mxGeometry relative="1" as="geometry" />
        </mxCell>
        <mxCell id="q4svlUAVzWbHuXpgUVyt-14" style="edgeStyle=orthogonalEdgeStyle;rounded=0;orthogonalLoop=1;jettySize=auto;html=1;entryX=0;entryY=0.5;entryDx=0;entryDy=0;" parent="1" source="q4svlUAVzWbHuXpgUVyt-2" target="q4svlUAVzWbHuXpgUVyt-13" edge="1">
          <mxGeometry relative="1" as="geometry" />
        </mxCell>
        <mxCell id="q4svlUAVzWbHuXpgUVyt-2" value="Admin" style="shape=umlActor;verticalLabelPosition=bottom;verticalAlign=top;html=1;outlineConnect=0;" parent="1" vertex="1">
          <mxGeometry x="180" y="170" width="30" height="60" as="geometry" />
        </mxCell>
        <mxCell id="q4svlUAVzWbHuXpgUVyt-4" value="Admin Page" style="text;html=1;align=center;verticalAlign=middle;whiteSpace=wrap;rounded=0;" parent="1" vertex="1">
          <mxGeometry x="347.5" y="90" width="120" height="30" as="geometry" />
        </mxCell>
        <mxCell id="q4svlUAVzWbHuXpgUVyt-5" value="Accept Listing" style="ellipse;whiteSpace=wrap;html=1;" parent="1" vertex="1">
          <mxGeometry x="365" y="150" width="75" height="50" as="geometry" />
        </mxCell>
        <mxCell id="q4svlUAVzWbHuXpgUVyt-6" value="Deny Listing" style="ellipse;whiteSpace=wrap;html=1;" parent="1" vertex="1">
          <mxGeometry x="365" y="230" width="75" height="50" as="geometry" />
        </mxCell>
        <mxCell id="q4svlUAVzWbHuXpgUVyt-7" value="Approve new Account" style="ellipse;whiteSpace=wrap;html=1;" parent="1" vertex="1">
          <mxGeometry x="370" y="315" width="75" height="50" as="geometry" />
        </mxCell>
        <mxCell id="q4svlUAVzWbHuXpgUVyt-8" value="Deny New Account" style="ellipse;whiteSpace=wrap;html=1;" parent="1" vertex="1">
          <mxGeometry x="370" y="400" width="75" height="50" as="geometry" />
        </mxCell>
        <mxCell id="q4svlUAVzWbHuXpgUVyt-13" value="Remove Listing" style="ellipse;whiteSpace=wrap;html=1;" parent="1" vertex="1">
          <mxGeometry x="370" y="490" width="75" height="50" as="geometry" />
        </mxCell>
      </root>
    </mxGraphModel>
  </diagram>
</mxfile>
